<?xml version="1.0" encoding="UTF-8"?>
<svg xmlns="http://www.w3.org/2000/svg" xmlns:xlink="http://www.w3.org/1999/xlink" width="24px" height="24px" viewBox="0 0 24 24" version="1.1">
<g id="surface1">
<path style=" stroke:none;fill-rule:nonzero;fill:rgb(0%,0%,0%);fill-opacity:1;" d="M 0 12.351562 L 0 22.058594 L 3.089844 22.058594 L 3.089844 20.976562 C 3.089844 19.898438 3.066406 19.875 2.382812 19.808594 L 1.65625 19.742188 L 1.589844 12.417969 L 1.542969 5.09375 L 2.25 5.03125 C 2.957031 4.964844 2.976562 4.941406 3.042969 3.792969 L 3.109375 2.648438 L 0 2.648438 Z M 0 12.351562 "/>
<path style=" stroke:none;fill-rule:nonzero;fill:rgb(0%,0%,0%);fill-opacity:1;" d="M 4.632812 10.566406 L 4.632812 18.53125 L 6.792969 18.53125 C 9.351562 18.53125 10.058594 18.199219 10.785156 16.71875 C 11.425781 15.351562 11.449219 12.351562 10.808594 11.292969 C 10.566406 10.898438 10.214844 10.523438 10.015625 10.433594 C 9.726562 10.324219 9.75 10.257812 10.125 9.839844 C 10.785156 9.132812 11.03125 8.273438 11.03125 6.550781 C 11.03125 5.359375 10.917969 4.785156 10.589844 4.257812 C 9.859375 3.042969 9.21875 2.78125 6.792969 2.691406 L 4.632812 2.601562 Z M 8.691406 5.867188 C 8.910156 6.066406 9.042969 6.59375 9.042969 7.191406 C 9.042969 8.46875 8.46875 9.089844 7.324219 9 L 6.507812 8.933594 L 6.441406 7.214844 L 6.375 5.515625 L 7.367188 5.515625 C 7.964844 5.515625 8.492188 5.648438 8.691406 5.867188 Z M 8.910156 12.175781 C 9.398438 12.859375 9.375 14.601562 8.867188 15.21875 C 8.558594 15.59375 8.207031 15.726562 7.476562 15.75 L 6.507812 15.773438 L 6.441406 13.71875 L 6.375 11.691406 L 7.476562 11.691406 C 8.359375 11.691406 8.648438 11.78125 8.910156 12.175781 Z M 8.910156 12.175781 "/>
<path style=" stroke:none;fill-rule:nonzero;fill:rgb(0%,0%,0%);fill-opacity:1;" d="M 13.234375 10.566406 L 13.234375 18.53125 L 15.398438 18.53125 C 17.160156 18.53125 17.667969 18.441406 18.265625 18.089844 C 20.207031 16.898438 20.648438 12.265625 18.96875 10.742188 C 18.464844 10.28125 18.375 10.101562 18.617188 10.015625 C 19.65625 9.617188 20.09375 6 19.300781 4.34375 C 18.726562 3.132812 17.933594 2.800781 15.398438 2.691406 L 13.234375 2.601562 Z M 17.316406 5.824219 C 17.625 6.042969 17.714844 6.375 17.691406 7.191406 C 17.691406 8.46875 17.140625 9.042969 15.96875 9.042969 L 15.21875 9.042969 L 15.21875 5.515625 L 16.058594 5.515625 C 16.523438 5.515625 17.09375 5.648438 17.316406 5.824219 Z M 17.46875 12.066406 C 17.757812 12.332031 17.867188 12.75 17.867188 13.699219 C 17.867188 14.800781 17.800781 15.023438 17.292969 15.417969 C 16.964844 15.683594 16.390625 15.882812 15.96875 15.882812 L 15.21875 15.882812 L 15.21875 11.691406 L 16.148438 11.691406 C 16.675781 11.691406 17.226562 11.84375 17.46875 12.066406 Z M 17.46875 12.066406 "/>
<path style=" stroke:none;fill-rule:nonzero;fill:rgb(0%,0%,0%);fill-opacity:1;" d="M 21 3.792969 C 21.066406 4.941406 21.089844 4.964844 21.792969 5.03125 L 22.5 5.09375 L 22.457031 12.417969 L 22.390625 19.742188 L 21.683594 19.808594 C 20.976562 19.875 20.957031 19.898438 20.957031 20.976562 L 20.957031 22.058594 L 24.042969 22.058594 L 24.042969 2.648438 L 20.933594 2.648438 Z M 21 3.792969 "/>
</g>
</svg>
